<?xml version="1.0" encoding="utf-8"?>
<!-- Generator: Adobe Illustrator 19.1.0, SVG Export Plug-In . SVG Version: 6.00 Build 0)  -->
<svg version="1.1" xmlns="http://www.w3.org/2000/svg" xmlns:xlink="http://www.w3.org/1999/xlink" x="0px" y="0px"
	 viewBox="0 0 400 100" style="enable-background:new 0 0 400 100;" xml:space="preserve">
<style type="text/css">
	.st0{fill:#FF0000;}
	.st1{fill:#FFFFFF;}
</style>
<g id="Lettering">
	<g>
		<path class="st0" d="M160.7,21.5c-4.6,0-8.3,1.2-8,5.3l1.3,13.5c0.6,5.5-1.5,8-5.9,8.9c4.5,0.9,6.5,3,5.9,8.9l-1.3,13.5
			c-0.4,4.2,3.3,5.3,8,5.3v4.4c-7.1,0-13.7-2.2-12.9-10.3l1.3-12.6c0.4-4.6-1.1-7-9.7-7v-4.5c8.6,0,10.1-2.4,9.7-6.9l-1.3-12.7
			c-0.8-8.1,5.8-10.3,12.9-10.3V21.5z"/>
		<path class="st1" d="M188.6,55.4H183v16.9h-5.5V26.8h11.1c10.5,0,16.9,4.5,16.9,14C205.6,51.4,198.5,55.4,188.6,55.4z M189.3,31.3
			H183v19.5h6.2c6,0,10.5-2.2,10.5-10C199.7,33.8,195.3,31.3,189.3,31.3z"/>
		<path class="st1" d="M231.8,62c0,6.5-4,10.8-10.2,10.8c-6.3,0-10.1-4.4-10.1-10.8V40.4h3.9v21.7c0,4.9,2.3,7.2,6.2,7.2
			c4,0,6.3-2.4,6.3-7.2V40.4h3.9V62z"/>
		<path class="st1" d="M241.1,40.4h3.8v28.3h14l-0.5,3.6h-17.4V40.4z"/>
		<path class="st1" d="M274.5,72.8c-4.5,0-8.2-1.4-10.8-4L266,66c2.1,2.1,4.8,3.4,8.5,3.4c3.7,0,7.1-1.9,7.1-5.9
			c0-3.1-1.4-4.6-6.7-6.2c-6.1-1.8-9.9-4.2-9.9-9.2c0-4.8,4.1-8.2,9.9-8.2c4.2,0,7.2,1.3,9.8,3.7l-2.3,2.6c-2.2-2-4.8-2.9-7.3-2.9
			c-3.4,0-6.1,1.5-6.1,4.7c0,2.7,1.9,4.1,7.7,5.9c4.8,1.4,9,3.5,9,9.6C285.7,69,281.6,72.8,274.5,72.8z"/>
		<path class="st1" d="M297.9,54.5h11.4v3.3h-11.4V69h14v3.2h-17.8V40.4h17.4l-0.4,3.3h-13.1V54.5z"/>
		<path class="st0" d="M337.6,27.4L336.3,40c-0.4,4.5,1.8,6.9,9.7,6.9v4.5c-7.9,0-10.1,2.4-9.7,7l1.3,12.6
			c0.8,8.1-5.8,10.3-12.9,10.3v-4.4c4.6,0,8.3-1.1,8-5.3L331.4,58c-0.6-5.8,1.4-8,6.6-8.8c-5-0.9-7.2-3.4-6.6-8.9l1.3-13.5
			c0.4-4.1-3.3-5.3-8-5.3v-4.4C331.8,17.1,338.4,19.3,337.6,27.4z"/>
	</g>
</g>
<g id="Lion">
	<path class="st1" d="M108.7,18.9c-0.3-0.1-0.5-0.2-0.8-0.3c0-0.2,0-0.3,0-0.3s0.1-0.2,0.3-0.4c0.2-0.2,0.6-1,0.2-1.6
		c-0.4-0.6-2.2-2.2-2.8-2.6c-0.6-0.5-1.7-1.5-2-1.9c-0.1-0.1-0.2-0.3-0.3-0.5c0,0,0.1,0,0.1,0c0.2,0,0.5,0.1,0.7,0.2c0,0,0,0,0,0
		c0,0,0,0,0,0c0,0,0,0,0,0c-0.2-0.1-0.5-0.2-0.7-0.2c-0.1,0-0.1,0-0.1,0c-0.1-0.2-0.3-0.4-0.5-0.6c0.1,0,0.2-0.1,0.3-0.1
		c0.4,0.1,0.7,0.2,1,0.5c0,0,0,0,0,0c0,0,0,0,0,0c0,0,0,0,0,0c-0.3-0.2-0.6-0.4-0.9-0.5c0,0,0.1,0,0.1,0c0.1,0,0.2,0,0.3,0
		c0.2,0,0.5,0,0.7,0c0,0,0,0,0,0c0,0,0,0,0,0c-0.2,0-0.5-0.1-0.7,0c-0.1,0-0.2,0-0.3,0c-0.1,0-0.1,0-0.2,0.1c-0.1,0-0.1,0-0.2,0
		c-0.1,0-0.1,0-0.2,0c0,0-0.1,0-0.1,0c-0.3-0.2-0.6-0.5-1.1-0.8c0.6-1.1,0-3.8-1.8-4.5c0.1-0.7,0-2.2-3.5-2.5c-0.2,0,1,0.2,1.8,0.8
		c-0.2-0.1-0.4-0.1-0.7-0.2c-0.6-0.2-2.4-0.7-4.9-0.4C92.3,3,93.2,3,94.1,3.1c-0.1,0-0.3,0-0.4,0.1c-1,0-2.3,0.2-3.6,0.6
		c-0.6,0.3-1.6,0.4-1.8,0.3c-0.2-0.1-0.1,0.3,1.6,0.3c-0.6,0.2-1.3,0.5-2,1.1c-0.2,0.1,0.9-0.4,1.6-0.5c-0.3,0.1-0.5,0.2-0.7,0.3
		c-1.3,0.3-1.3,0.6-1.1,0.5c0.1,0,0.3-0.1,0.5-0.1c-0.2,0.2-0.3,0.3-0.4,0.4c-1.6-0.2-1.7,0.4-1.6,0.3c0.1-0.1,0.5-0.2,1.1,0
		c-0.7,0.1-1.8,0.4-3.3,1c-0.2,0.1,1.3-0.3,2.1-0.2c-0.2,0.1-1.2,0.4-1.7,0.6c-0.2,0-0.5,0.1-0.8,0.1C83,8,82.3,8.1,82.1,8.2
		c-0.2,0.1,0.6-0.1,0.9,0.1c0.1,0.1,0.4,0.1,0.7,0.1c0,0,0.8-0.1,0.8-0.1c-0.3,0.1-0.7,0.2-1,0.3c-0.6,0.1-1.2,0.4-2.1,1
		c-0.1,0.1,0.3-0.1,0.9-0.3c0,0-0.1,0.1-0.1,0.1c-0.5,0.9-1.1,0.8-1.3,0.8c-0.1,0,0.1,0.3,1,0c-0.1,0.2-0.2,0.3-0.2,0.5
		c-0.2,0-0.4,0-0.5,0c-0.7,0.1-0.8,0.3-0.9,0.4c0,0.1,0.8-0.3,1.6,0c0,0,0.1,0.1,0.1,0.1c0,0-0.6,0-0.6,0c-0.7,0-2.2,0.4-3.3,1.7
		c-0.1,0.1,1.4-1,2.7-1.1c-1.2,0.4-0.8,1.1-2.1,1.5c-0.1,0-0.6,0.2-0.7,0.2c-0.8,0.2-1.4,0.5-1.5,0.6c-0.2,0.1,0.6-0.2,1-0.2
		c0.2,0,0.6,0,0.8,0c-0.3,0.1-0.6,0.5-0.7,0.7c-0.4,0.3-0.9,0.3-1.2,0.4c-0.1,0,0.9,0.4,2.5-0.7c-0.3,0.4-0.7,0.6-0.6,0.9
		c-1,0.1-1.6,0.6-2.2,0.8c-0.2,0.1,1.4-0.3,2-0.1c0.1,0,0.4,0.1,0.4,0.2c-1.9,0-2.9,1.2-3.8,2c-0.2,0.2,1.5-1,2.9-0.8
		c-0.6,0.1-1.3,0.3-1.6,0.4c-0.5,0.2-1.2,0.6-1.9,1.1c-0.2,0.1,1-0.5,1.7-0.6c-0.6,0.3-0.6,0.7-0.8,0.9c-0.4,0.5-1.5,0.9-1.8,1
		c-0.2,0,1.5,0.1,3-1.2c0,0.2-0.3,0.6-0.7,1.1c-0.4,0.5-1.7,1.3-1.8,1.3c-0.1,0,0.3,0,1-0.3c0.7-0.3,0.7,0,1.1,0
		c-1.3,0.3-1.4,0.8-1.7,1c-0.4,0.4-0.7,0.6-1.3,1.3c0,0.2,1.4-1.3,2.2-1.1c-0.5,0.4-1,0.8-1.2,1.1c-0.5,0.2-1,0.5-1.5,0.9
		c-0.2,0.1,0.6-0.2,1.3-0.4c-0.3,0.4-0.6,1-0.8,1.8c0,0.1,0.5-1,1.1-1.4c-0.1,0.3-0.1,0.5-0.1,0.9c-0.1,0.1-0.3,0.3-0.5,0.5
		c-0.4,0.3-0.7,0.8-1.1,1.3c-0.2,0.2,0.6-0.5,1.2-0.8c0.2-0.1,0.5-0.1,0.6-0.1c0,0-0.4,0.3-0.4,0.3c-0.6,0.5-1,1.1-1.1,1.2
		c-0.1,0.2,0.4-0.4,0.8-0.5c0.3-0.1,0.6-0.2,0.7-0.2c-0.3,0.2-0.5,0.4-0.6,0.6c-0.3,0.4-0.7,0.9-1,1.5c-0.1,0.2,1-1.3,1.8-1.7
		c-0.8,0.9-0.9,1.4-0.8,1.6c-0.5,0.4-1.2,0.9-1.5,0.9c-0.2,0,0,0.4,1.5-0.3c-0.9,0.4-3.9,1.6-5.5,3.2c-1,1-3.9,2-4.3,2.7
		c-1,0.2-3,1.2-4.4,2.6c-1.3,1.5-3.1,3.7-3.6,5.7c-1.8,6.2-6.5,15.9-10.8,16c-0.9-0.4-2.6-1.4-3.6-1.3c-1.3-0.2-2.1-0.9-2.2-0.8
		c-0.1,0.1,0.2,1.4,0.8,1.7c0.1,0.7,1.8,1.5,2.5,1.6c0.4,0.5,2.2,0.2,3.1-0.3c3.2-0.4,7.7-6.6,9.3-9.7c1.2-2.2,2.6-5.3,2.6-5.3
		s0.1,0.4,0.1,1.6c0,2.3-0.5,3.7-0.2,6.8c0.3,3.1,0.3,4.1,0.1,4.4c-0.2,0.3-0.1,1-0.2,2.2c-0.1,1.2-0.5,2.6-0.8,3.6
		c-0.3,1-0.4,0.9-0.6,1.2c-0.2,0.4-0.4,1.8-0.4,2.5c-0.2,0.4-0.1,0.8,0,0.9c0.2,0.4,1,0.1,1.1-0.1c0.4,0.5,1.4,0.5,1.8,0.2
		c0.4,0.3,1.4,0.4,1.7,0c0.3,0.2,1.2,0.2,1.3,0c0.1-0.3,0.2-2.4-0.4-3.2c-0.2-0.3-0.3-0.6-0.5-0.8c0-0.5,0-1.1-0.1-1.8
		c0-1.1,0-3.6,0.1-4.6c0.2-1,0.8-2.5,1-3.7c0.2-1.1,1.2-1.9,2.3-3.2c0.6-0.6,1-1.1,1.4-1.5c0.2,0.2,0.8,0.6,1.1,0.6
		c0.5,0,0.8-0.1,1.1-0.3c0.2,0.3,0.3,0.5,0.7,1.5c0.7,1.8,0.6,1.7,0.3,3.4c0,0.3-0.5,0.8-0.2,1.9c0,0.9,0.4,2.6,0.8,3.5
		c0.4,0.9,0.8,1.4,1.2,2.1c0.5,0.8,1.2,1.3,1.7,1.5c0.4,0.2,1.3,1.1,2.5,0.1c0.8,0,1.2-0.1,1.2-0.5c0.6-0.1,1.2-0.5,0.9-1.1
		c-0.3-0.6-0.4-1.8-1.8-2.1c-1.4-0.3-1.6-0.4-2-0.8c-0.5-0.4-1.4-1.4-1.3-2.4c0.1-1,1-1.7,1.4-2.9c0.2-0.6,1.6-1.1,1.9-2.7
		c0.2-1.1,0.1-1.9,0.1-1.9s0.8-0.2,2.3-0.6c0.3-0.1,0.5-0.1,0.7-0.2c0.3,0,0.7,0,1,0c-0.5,0.1-1.1,0.4-1.7,0.8
		c-0.1,0.1,1-0.5,2.3-0.4c-0.5,0.1-1,0.3-1.6,0.6c-0.2,0.1,0.9-0.2,2.1-0.1c0,0,0,0.1,0,0.1c-0.7,0.1-1.2,0.2-1.3,0.2
		c-0.2,0.1,0.6-0.1,0.9,0.1c0.1,0,0.3,0.1,0.4,0.1c-0.5,0.2-0.8,0-0.9,0c-0.1,0,0.1,0.3,1,0.3c0.2,1.1,0.4,2.3,0.4,3
		c0.2,1.5,0.2,3.1,0.1,4c-0.1,0.9-0.1,1.5,0.4,2.5c0.5,1,0.9,2.6,1.4,3.3c0.5,0.7,1.1,2.2,2.7,1.5c0.7,0.6,2.2,0.5,2.4-0.2
		c0.8,0.1,1.6-0.1,1.6-0.9c0.4,0,0.9-0.3,0.6-1.4c-0.3-1.1-1.3-2.5-2.4-3.1c-1.1-0.5-1.9-1.1-1.9-1.4c0.1-1.8-0.2-2.3,0-3.1
		c0.3-1.1,0.7-3,0.7-3s0.5,0.4,0.9,0.4c0.5,0,0.7,0.1,1,0.1c-0.5,0.2-1.1,0.3-1.4,0.2c-0.3-0.1-0.1,0.4,2.3,0
		c0.3,0.8,0.9,2.5,1.3,3.1c0.3,0.4,0.4,1.7,0.5,1.8c0.1,0.5,0.2,1.8,1.5,2.2c1.1,0.9,0.9,1.5,1.5,1.7c0.6,0.2,1.3,0.2,1.5,0.6
		c0.3,0.4,2.1,0.6,2.6,0.1c0.8,0.3,1.5,0.3,1.7,0.2c0.6,0.1,0.6-0.6,0.4-1.5c-0.2-0.7-0.1-1.3-0.8-2c-0.7-0.6-2.3-1.4-4-1.8
		c-0.2,0-0.3-1.1-0.4-1.7c-0.1-1.2,0-3.2-0.1-4.2c0.2-0.1,0.7-0.4,1-0.8c-0.1,0.4-0.5,0.8-0.6,0.9c-0.1,0.1,0.9-0.4,1.4-1.6
		c0.2-0.5,0.3-0.9,0.3-1.2c0,0,0,0,0,0c0.3,0.9,0.7,1,0.7,0.8c-0.3-0.4-0.2-1.6-0.2-2.6c0.1-0.1,0.2-0.1,0.2-0.2
		c-0.1,0.8-0.3,1.3-0.2,1.2c0.4-0.9,0.7-1.7,0.9-2.3c0.3,0.7,0,1.1-0.1,1.3c-0.1,0.2,0.6,0,0.5-1.8c0-0.3,0-0.6-0.1-0.8
		c0.2-0.3,0.2-0.6,0.3-0.8c0.1,1.1,0.4,1.2,0.4,1c-0.1-0.5,0.1-1.6,0.5-2.7c0,0.8-0.1,1.4,0,1.2c0.5-1.5,0.7-2.6,0.8-3.3
		c0-0.1,0.1-0.2,0.1-0.2c0,0,0-0.1,0.1-0.1c0,0,0,0.1,0,0.1c0.1,0.6-0.1,1.6-0.3,1.9c-0.2,0.2,0.4,0.2,1-2.5c0-0.1,0-0.2,0.1-0.4
		c0.2,0.6,0,0.9-0.1,1c-0.1,0.2,0.6,0,0.4-1.8c0-0.2-0.1-0.4-0.1-0.6c0.2-0.4,0.3-0.8,0.5-1.2c0.1,0.8-0.4,1.4-0.3,1.4
		c0.1,0,0.4-0.1,0.6-0.8c0.1-0.3,0.2-1,0.3-1.8c0.3,0.5,0.3,1.5,0.3,1.2c0-0.3,0.1-1.3,0-2.4c0-0.2,0-0.4,0-0.7
		c0.1-0.6,0.2-1.3,0.3-1.9c0.1,1-0.1,2-0.1,2s0.8-0.5,0.7-3.9c0-0.7-0.2-1.4-0.5-2c0.3-1.5-0.1-3.2-0.7-3.7c0,0,0.3-0.1,0.2-0.7
		c0,0,0.2,0.1,0.7,0.3c-0.1,0-0.3,0.1-0.4,0.2c0,0,0,0,0,0c0,0,0,0,0,0c0,0,0,0,0,0c0.1-0.1,0.3-0.1,0.4-0.2
		c0.1,0.1,0.3,0.1,0.4,0.1c0,0.1,0,0.2,0,0.3c0,0.2-0.1,0.4-0.1,0.5c-0.2,0.1-0.3,0.2-0.5,0.3c0,0,0,0,0,0c0,0,0,0,0,0c0,0,0,0,0,0
		c0.2-0.1,0.3-0.1,0.5-0.2c0,0.1-0.1,0.3-0.2,0.4c0,0,0,0,0,0c0,0,0,0,0,0c0,0,0,0,0,0c0.1-0.2,0.1-0.3,0.2-0.5
		c0.1-0.1,0.2-0.1,0.4-0.2c0.2-0.1,0.3-0.3,0.4-0.5c0,0,0.1,0,0.1,0c0,0,0,0,0,0.1c-0.1,0.6-0.2,1.2-0.3,1.7
		c-0.1,0.1-0.1,0.2-0.2,0.3c0,0,0,0,0,0c0,0,0,0,0,0c0,0,0,0,0,0c0-0.1,0.1-0.1,0.1-0.2c-0.1,0.3-0.2,0.6-0.2,0.9c0,0,0,0,0,0
		c0,0,0,0,0,0c0,0,0,0,0,0c0.1-0.3,0.2-0.7,0.3-1c0.3-0.4,0.6-0.7,0.8-1.2c0,0,0,0,0,0c0,0.5,0,0.9,0,1.4c0,0.1,0,0.1,0,0.2
		c0,0.4-0.1,0.8-0.1,1.2c0,0,0,0,0,0c0,0,0,0,0,0c0,0,0,0,0,0c0-0.4,0.1-0.8,0.1-1.2c0-0.1,0-0.1,0-0.2c0-0.5,0-0.9,0-1.4
		c0,0,0-0.1,0-0.2c0-0.1,0.1-0.2,0.1-0.3c0-0.1,0.1-0.2,0.1-0.2c0,0,0.1,0,0.1,0c0.1,0,0.2,0,0.4-0.1c0,0.2,0,0.4,0.1,0.5
		c-0.1,0.2-0.2,0.3-0.4,0.5c0,0,0,0,0,0c0,0,0,0,0,0c0,0,0,0,0,0c0.1-0.1,0.2-0.3,0.3-0.4c0,0.2,0,0.3,0,0.5c0,0.3,0.1,0.6,0,1
		c0,0,0,0,0,0c0,0,0,0,0,0c0,0,0,0,0,0c0-0.3,0-0.6,0-1c0-0.2,0-0.3,0-0.5c0,0,0,0,0,0c0.1-0.2,0.2-0.4,0.3-0.6c0-0.1,0-0.2,0-0.2
		c0.2-0.1,0.3-0.3,0.4-0.5c0.1,0.3,0.3,0.6,0.3,0.9c0,0,0,0,0,0c0,0,0,0,0,0c0,0,0,0,0,0c0-0.3-0.2-0.6-0.3-0.9
		c0.5-0.6,0.8-1.5,0.8-2.2c0,0,0.1-0.1,0.1-0.1c0.1,0.1,0.1,0.2,0.1,0.3c0,0.1,0.1,0.2,0.1,0.3c0,0.1,0,0.3,0,0.4c0,0,0,0,0,0
		c0,0,0,0,0,0c0,0,0,0,0,0c0-0.1,0-0.3,0-0.4c0-0.1,0-0.2-0.1-0.3c0-0.1-0.1-0.2-0.2-0.3c0.1-0.1,0.2-0.3,0.3-0.4
		c0.1,0.2,0.2,0.4,0.3,0.5c0,0,0,0,0,0c0,0,0,0,0,0c0,0,0,0,0,0c-0.1-0.2-0.2-0.4-0.3-0.6c0.1-0.3,0.2-0.6,0.2-0.8
		C108.2,18.7,108.4,18.9,108.7,18.9C108.7,18.9,108.7,18.9,108.7,18.9C108.7,18.9,108.8,18.9,108.7,18.9
		C108.8,18.9,108.8,18.9,108.7,18.9z M98.3,42.2C98.3,42.2,98.3,42.2,98.3,42.2C98.3,42.2,98.3,42.2,98.3,42.2
		C98.3,42.2,98.3,42.2,98.3,42.2z M102.6,10.5C102.7,10.5,102.7,10.5,102.6,10.5c0.1,0,0.2,0,0.2,0c0,0,0.1,0,0.1,0
		C102.9,10.5,102.8,10.5,102.6,10.5C102.7,10.5,102.7,10.5,102.6,10.5z M103.8,23.5c-0.1,0.1-0.2,0.1-0.3,0.2c0-0.2,0.1-0.3,0.1-0.5
		c0-0.1,0-0.2,0-0.2c0.2,0,0.3,0.1,0.5,0.1C104,23.2,103.9,23.4,103.8,23.5z M104.1,24.8c0.1-0.5,0.2-1.1,0.3-1.6c0,0,0,0,0-0.1
		c0.1,0,0.3,0,0.4,0c0,0.2,0,0.3,0.1,0.5C104.6,24,104.4,24.4,104.1,24.8z M104.9,23.3c0,0.1,0,0.1-0.1,0.2c0-0.1,0-0.3,0-0.4
		c0.1,0,0.1,0,0.2,0C105,23.2,105,23.3,104.9,23.3z M105.9,23c0,0.2-0.1,0.3-0.2,0.5c0-0.2,0-0.3-0.1-0.5c0.1-0.1,0.2-0.1,0.3-0.2
		C105.9,22.8,105.9,22.9,105.9,23z"/>
	<path class="st1" d="M113.8,92.4c-0.5-0.6-1.3-1.1-1.9-1.7c0,0,0,0,0,0c0,0,0,0,0,0c0,0,0,0,0,0c0-0.1,0-0.1,0-0.2
		c0,0,0,0.1-0.1,0.1c0,0,0,0,0-0.1c0,0,0,0.1,0,0.1c0,0-0.1-0.1-0.1-0.1c0.1-0.2,0.2-0.3,0.3-0.5c0-0.1,0.1-0.2,0.2-0.2
		c0,0-0.1,0-0.1,0c0,0,0.1-0.1,0.1-0.1c0,0,0,0-0.1,0c0,0,0,0,0-0.1c0,0,0,0,0,0c0,0,0,0.1,0,0.1c0,0,0,0,0,0c0,0,0,0,0,0
		c0,0,0,0-0.1,0c0.1,0.1-0.1,0.3-0.1,0.4c0,0,0,0,0,0c0,0.1-0.1,0.2-0.1,0.3c0.1-0.3,0.1-0.6,0.2-0.9c0.1-0.2,0.2-0.3,0.3-0.4
		c0,0.1,0.2,0.1,0.2,0c0,0-0.1-0.1-0.1-0.1c-0.1,0-0.1,0.1-0.1,0.1c0-0.2,0.1-0.3,0.2-0.4c0,0,0.1,0,0.1-0.1c0,0,0,0-0.1,0
		c0,0,0.1-0.1,0-0.1c0,0,0,0.1-0.1,0.1c0,0,0-0.1,0-0.2c0,0,0,0,0,0c0-0.1,0.1-0.1,0.1-0.2c0,0,0,0-0.1,0c-0.1,0,0,0.1-0.1,0.2
		c0,0,0-0.1,0-0.2c0,0-0.1,0-0.1,0c0-0.1,0.1-0.2,0.1-0.3c0,0,0,0.1-0.1,0.1c0-0.1,0.1-0.2,0-0.2c-0.1,0,0,0.1-0.1,0.2
		c0,0,0-0.1,0-0.1c0,0,0,0.1,0,0.1c-0.1,0-0.1-0.2-0.1-0.2c0,0,0,0,0,0.1c0,0,0.1,0.1,0.2,0.2c0.1,0.1,0,0.4,0,0.5c0,0,0,0,0,0
		c0,0,0,0.1,0,0.1c0,0.2-0.1,0.6-0.2,0.8c-0.2-0.4-0.4-0.8-0.4-1.2c0,0-0.1,0-0.1,0c0,0.1,0.1,0.1,0.1,0.1c0,0,0,0,0,0
		c0,0,0.1,0.1,0.1,0.1c-0.1-0.1-0.1-0.1-0.1-0.2c0-0.1-0.1-0.2-0.1-0.2c0-0.1,0.1-0.1,0.2-0.1c-0.1,0-0.1,0-0.1,0c0,0,0-0.1,0-0.1
		c0,0,0,0,0,0c0-0.1,0.1-0.2,0.1-0.3c0,0,0-0.1,0-0.1c0,0,0,0,0,0.1c0,0.1-0.1,0.2-0.1,0.2c0,0,0-0.1-0.1-0.1
		c0.1,0.1,0.1,0.2,0.1,0.3c0,0,0-0.1,0-0.1c0,0,0,0,0,0c0,0,0,0,0-0.1c0,0,0,0,0,0c0-0.1,0-0.1-0.1-0.1c0-0.2,0-0.3,0.1-0.5
		c0.1-0.3,0.1-0.6,0.2-0.8c0-0.1,0.1-0.2,0.2-0.3c0-0.1,0.3-0.1,0.3-0.2c0,0-0.1-0.1-0.1-0.1c-0.1,0-0.1,0.2-0.2,0.2
		c0-0.1,0.1-0.2,0-0.3c0,0-0.1,0-0.1,0c0,0.1,0,0.2,0,0.3c0-0.1,0-0.2-0.1-0.2c0,0,0,0,0,0c0,0.1,0.1,0.1,0.1,0.2
		c0,0.2-0.2,0.3-0.2,0.5c0,0,0,0-0.1,0c0-0.2,0-0.5-0.1-0.7c0,0-0.1,0-0.1,0c0-0.1,0.1-0.1,0.1-0.1c0,0,0,0,0,0c0,0,0,0,0,0
		c0,0,0,0.1-0.1,0.1c0-0.1,0-0.1,0.1-0.2c0,0,0,0-0.1,0c0,0,0-0.1-0.1-0.1c-0.1,0,0,0.2-0.1,0.2c0-0.1,0-0.2-0.1-0.2c0,0,0,0,0,0
		c0,0.1,0.1,0.1,0.1,0.2c0-0.1-0.1-0.1-0.1,0c0.2,0.1,0.1,0.3,0,0.5c0,0.1-0.1,0.2-0.1,0.3c0-0.2,0-0.4,0-0.6c0-0.2,0-0.4,0-0.5
		c0,0,0-0.1,0-0.1c0-0.1,0.1-0.2-0.1-0.1c0,0.1,0,0.1,0,0.2c-0.1,0,0.1,0.1,0,0.2c0-0.1-0.1-0.2-0.1-0.4c0-0.1-0.1-0.2,0-0.2
		c0-0.1,0.1-0.2,0-0.3c0,0-0.1,0-0.1,0c0-0.1-0.1-0.1-0.1,0c0,0.1,0.2,0.2,0.1,0.3c-0.1,0-0.1-0.2-0.2-0.2c0,0-0.1,0-0.1,0.1
		c0,0,0.1,0.1,0.2,0.1c0.1,0.1,0.1,0.4,0.1,0.6c0,0,0,0,0,0c0-0.1-0.1-0.2-0.1-0.3c0,0,0,0,0,0c0,0,0-0.1-0.1-0.1c0,0,0,0.1,0,0.1
		c-0.1,0-0.1-0.2-0.2-0.2c0,0-0.1,0,0,0.1c0,0,0.1,0.1,0.2,0.1c0.1,0,0.2,0.2,0.2,0.3c0,0,0,0,0,0.1c-0.1,0-0.1-0.2-0.2-0.1
		c0,0,0.1,0.1,0.1,0.1c0,0,0,0,0,0.1c0,0-0.1-0.1-0.2-0.1c0,0-0.1-0.1-0.1-0.1c0,0,0,0.1,0,0.1c0,0,0.1,0.1,0.1,0.1
		c0.1,0,0.2,0.1,0.3,0.1c0.1,0.1,0.1,0.3,0.1,0.6c0.1,0.3,0.1,0.6,0.1,1c0,0,0,0,0,0c-0.1,0.1,0.1,0.1,0,0.2c0,0-0.1-0.1-0.1-0.1
		c-0.1-0.1-0.1-0.1-0.1-0.2c0-0.1-0.1-0.2-0.2-0.3c0-0.1,0-0.2-0.1-0.2c0,0,0-0.1,0-0.1c-0.1,0,0.1,0.2,0.1,0.2c0,0-0.2-0.1-0.1,0
		c0,0,0.1,0,0.1,0.1c0,0,0,0,0,0c0.1,0.1,0.2,0.4,0.3,0.6c-0.1,0,0,0.1,0.1,0.1c0.1,0.1,0,0.3,0,0.4c-0.2-0.2-0.4-0.4-0.5-0.8
		c0,0,0,0,0,0c0,0,0-0.1,0-0.1c0,0.1,0.1,0.1,0.1,0.2c0,0,0,0,0,0c-0.1-0.1-0.1-0.2-0.2-0.3c0-0.3-0.1-0.6-0.2-0.8
		c-0.2-0.3-0.5-0.6-0.6-0.9c-0.1-0.3-0.2-0.7-0.3-1c-0.1-0.3-0.3-0.5-0.4-0.8c-0.1-0.3-0.3-0.6-0.4-0.9c-0.1-0.3-0.2-0.5-0.5-0.7
		c-0.3-0.1-0.5-0.3-0.8-0.5c-0.3-0.2-0.6-0.3-0.9-0.5c-0.6-0.3-1-1-1.5-1.4c-0.1-0.1-0.2-0.2-0.4-0.3c0.2-0.1,0.4-0.2,0.7-0.2
		c0.2,0,0.4,0.1,0.6,0.2c0.1,0.1,0.1,0.1,0.2,0.2c0,0,0,0.1,0,0.1c0,0,0.1,0.2,0.1,0.2c0,0,0-0.2,0-0.2c0,0,0-0.1-0.1-0.2
		c-0.1-0.1-0.1-0.1-0.2-0.2c-0.2-0.1-0.4-0.2-0.6-0.2c-0.3,0-0.6,0.1-0.8,0.2c0,0,0,0,0,0c0.5-0.4,1-0.7,1.6-1
		c0.3-0.2,0.7-0.3,1-0.4c0.2-0.1,0.3-0.1,0.4-0.2c0,0,0.3-0.2,0.2-0.3c-0.1,0.2-0.4,0.2-0.6,0.3c-0.1,0-0.3,0.1-0.4,0.1
		c0,0-0.3,0.1-0.4,0.1c-0.1,0-0.2,0.1-0.3,0.1c-0.2,0.1-0.4,0.2-0.6,0.3c-0.4,0.2-0.7,0.4-1.1,0.7c0.5-0.5,1-1,1.5-1.5
		c0.3-0.2,0.6-0.5,0.9-0.7c0.3-0.2,0.6-0.3,0.8-0.5c-0.1,0-0.3,0.1-0.4,0.2c-0.2,0.1-0.3,0.2-0.5,0.3c-0.3,0.2-0.6,0.4-0.8,0.6
		c-0.5,0.5-1,0.9-1.5,1.4c0.2-0.4,0.4-0.8,0.5-1.3c0.1-0.4,0.1-0.7,0-1.1c0,0.1,0,0.4,0,0.5l0,0.1c0,0,0,0.2,0,0.3
		c0,0.1,0,0.2-0.1,0.3c-0.1,0.1-0.1,0.2-0.2,0.4c0,0-0.1,0.1-0.1,0.1c0.1-0.6,0.1-1.1,0-1.7c0-0.3-0.1-0.5-0.1-0.8
		c0-0.2-0.1-0.3-0.1-0.5c0-0.1,0-0.3-0.1-0.3c0.4,1.4,0.5,2.8,0,4.1c-0.1-0.8-0.4-1.6-0.7-2.3c-0.1-0.1-0.1-0.2-0.1-0.3
		c0-0.5,0.1-1.1,0.1-1.5c0-1.3,0.2-2.6,0.1-3.9c-0.1-0.8-0.1-1.6-0.2-2.4c0-0.7,0-1.5-0.3-2.1c-0.5-1.2-1.6-2-2.3-2.9
		c-0.4-0.5-0.8-1-1.3-1.4c-0.5-0.4-1.1-0.7-1.7-0.9c-0.6-0.2-1.2-0.5-1.8-0.7C94.7,60,94,60.1,93.3,60c-0.6-0.1-0.9,0.5-1.6,0.5
		c-2.2,0.1-4.6,0.6-6.8,0.9c-1.3,0.2-3.2,0-4.5,0.3c-1.2,0.3-2-0.1-3.1,0.5c-0.6,0.3-0.9-0.1-2,0.3c0,0-1-0.1-1.7-0.2
		c-1.3,0-2.2,0-3.5,0.2c-0.4,0.1-0.8,0.2-1.3,0.4c0-0.1-0.1-0.1-0.1-0.2c0,0,0,0.1,0,0.2c-0.3-0.2-0.5-0.4-0.8-0.6
		c0,0.1,0.2,0.1,0.2,0.2c0,0,0,0,0,0.1c0.1,0.1,0.2,0.1,0.3,0.2c-0.2,0.1-0.5,0.2-0.6,0.3c0.2-0.1,0.4-0.2,0.6-0.3
		c0.1,0.1,0.2,0.1,0.2,0.2c-0.1,0.1-0.3,0.1-0.4,0.2c-0.1,0-0.3,0-0.4,0c0,0-0.1,0-0.1,0c-0.1,0-0.1,0-0.2,0c-0.1,0-0.2,0.1-0.3,0.2
		c0,0-0.1-0.1-0.1-0.1c0-0.1-0.1-0.1-0.1-0.2c0-0.1,0-0.2-0.1-0.2c0-0.1,0.2-0.3,0.3-0.4c-0.2,0.1-0.3,0.2-0.4,0.3
		c-0.1,0-0.1,0-0.2,0c0,0-0.1,0-0.1-0.1c-0.1-0.1-0.2-0.1-0.2-0.2c-0.1-0.1-0.2-0.1-0.3-0.2c0.1,0.1,0.3,0.3,0.4,0.3
		c-0.3,0-0.5,0-0.8,0.1c0.1,0,0.2,0,0.3,0c0.1,0,0.2,0,0.3,0c0.1,0,0.2,0,0.3,0C66.9,63,67,63,67,63.1c0,0.1,0,0.1,0.1,0.2
		c0,0,0.1,0,0.1,0.1c0,0,0.1,0.1,0.1,0.1c0,0,0,0,0.1,0.1c-0.4,0.2-0.8,0.4-1.2,0.4c0-0.1,0-0.2,0-0.3c0,0.1,0,0.2,0,0.3
		c-0.1,0-0.2,0-0.2,0c-0.3,0-0.5,0.1-0.7,0.1c0,0,0,0-0.1,0c0,0,0-0.1,0-0.1c0-0.1,0.1-0.1,0.2-0.2c0.1-0.1,0.1-0.1,0.1-0.2
		c0-0.1,0.1-0.1,0.1-0.2c-0.1,0.1-0.2,0.2-0.3,0.3c0,0-0.1,0.1-0.1,0.1c0.1-0.2,0.2-0.3,0.3-0.5c-0.1,0.1-0.2,0.2-0.3,0.3
		c0,0.1-0.1,0.1-0.1,0.2C65,64,64.9,64,64.8,64c0,0-0.1,0-0.1,0c0,0-0.1,0-0.1,0c0,0,0-0.1-0.1-0.1c0,0,0-0.1-0.1-0.1
		c0-0.1,0.1-0.1,0.1-0.2c0-0.1,0-0.1,0.1-0.2c0-0.1,0-0.1,0-0.2c-0.1,0.1-0.2,0.3-0.3,0.4c0,0,0,0,0,0c-0.1-0.1-0.2-0.2-0.3-0.3
		c0.1,0.1,0.2,0.3,0.3,0.4c0,0,0,0.1-0.1,0.1c0,0,0,0,0,0c0,0,0,0,0,0c0,0,0,0,0,0c-0.1,0.1-0.1,0.2,0,0.3c0,0,0,0.1,0.1,0.1
		c0,0-0.1,0-0.1,0c0,0-0.1-0.1-0.1-0.1C64,64.1,63.9,64,63.7,64c0,0.1,0.1,0.3,0.2,0.4c-0.1,0-0.1,0-0.2,0.1c0,0-0.1,0-0.1-0.1
		c-0.1,0-0.2-0.1-0.2-0.1c-0.1,0-0.2,0-0.3,0c0,0,0.1,0,0.1,0c0,0,0.1,0,0.1,0.1c0.1,0.1,0.1,0.2,0.2,0.2c0,0,0,0,0,0
		c-0.3,0.1-0.7,0.3-1,0.5c-0.2,0.1-0.3,0.2-0.5,0.3c-0.1-0.1-0.2-0.2-0.3-0.3c-0.1-0.1-0.2-0.2-0.3-0.3c0.1,0.2,0.2,0.4,0.4,0.6
		c0,0,0.1,0.1,0.1,0.1c-0.9,0.5-1.7,1-2.6,1.5c-1.1,0.7-3.5,1.9-3.5,1.9s-1.1,0-1.6,1c-0.3,0.5-0.5,1-0.6,1.6
		c-0.1,0.6-0.2,2.3-0.2,2.3s-1.1,1.2-2.5,2.7c-1.4,1.4-1.7,2.6-1.7,2.6s-0.1,0-0.1,0.1c0,0,0-0.1-0.1-0.1c-0.1-0.2-0.2-0.3-0.1-0.5
		c0.1,0,0.2,0,0.3,0c-0.2,0-0.4,0-0.4,0.2c0-0.1-0.1-0.2-0.1-0.3c0.1,0.2,0.2,0.5,0.2,0.8c-0.1,0-0.1,0.1-0.2,0.1
		c-0.1-0.1-0.1-0.3-0.2-0.4c-0.2-0.3-0.5-0.4-0.8-0.6c0.2,0.1,0.5,0.3,0.6,0.5c0.1,0.1,0.2,0.3,0.3,0.5c-0.1,0.1-0.2,0.1-0.3,0.2
		c0,0-0.1,0-0.1,0c0-0.1,0.1-0.1,0.1-0.2c0,0,0,0-0.1,0c0,0,0,0,0,0c0,0,0,0,0,0.1c0,0,0,0.1-0.1,0.1c0,0-0.1,0.1-0.1,0.1
		c-0.1,0-0.2,0-0.3,0c-0.2,0-0.4,0.1-0.6,0.2c0-0.1,0.1-0.1,0.1-0.2c0,0-0.1,0-0.1-0.1c0,0,0-0.1,0-0.1c0,0-0.1,0.2-0.1,0.2
		c0,0,0,0.1-0.1,0.1c0,0-0.1,0-0.1,0.1c-0.1-0.1-0.2-0.1-0.2-0.2c0-0.1,0-0.1,0.1-0.2c0.1-0.1,0.1-0.1,0.1-0.2
		c0-0.1,0.1-0.1,0.2-0.2c0.1-0.1,0.1-0.2,0.1-0.2c0-0.1,0.1-0.1,0.2-0.2c0.1-0.1,0.1-0.1,0.1-0.2c0-0.1,0.1-0.1,0.1-0.2
		c-0.1,0.1-0.2,0.2-0.3,0.3c-0.1,0.1-0.2,0.2-0.3,0.3c-0.1,0.1-0.2,0.2-0.3,0.3c0,0-0.1,0.1-0.1,0.2c0,0,0,0.1,0,0.1
		c0-0.1-0.1-0.1-0.1-0.2c0-0.1,0-0.1,0-0.2c-0.1-0.1,0-0.2,0.1-0.4c0.1-0.1,0.1-0.2,0.2-0.4c0-0.1,0-0.1,0.1-0.2c0-0.1,0-0.1,0-0.2
		c-0.2,0.2-0.4,0.4-0.4,0.6c-0.1,0.1-0.1,0.2,0,0.3c0,0.1,0.1,0.2,0.1,0.3c-0.1-0.1-0.2-0.2-0.3-0.3c-0.1-0.1-0.2-0.2-0.3-0.2
		c0,0.2,0.1,0.3,0.2,0.4c0.1,0,0.1,0.1,0.2,0.1c0.1,0,0.1,0.1,0.1,0.2c-0.2-0.1-0.5-0.2-0.7-0.3c-0.1,0-0.2-0.1-0.2-0.1
		c-0.1,0-0.2,0-0.3,0c0,0,0.1,0,0.1,0c0,0,0.1,0,0.1,0.1c0.1,0.1,0.1,0.2,0.2,0.2c0.1,0.1,0.3,0.3,0.5,0.2c0.1,0,0.1,0,0.2,0
		c0,0,0.1,0,0.1,0c0.1,0,0.1,0,0.1,0.1c0,0.1,0,0.1,0,0.2c0,0,0,0.1,0,0.1c0,0.1-0.1,0.2-0.1,0.3c0,0,0,0-0.1,0
		c-0.1,0-0.1-0.1-0.2-0.1c0,0-0.1-0.1-0.1-0.1c0,0,0,0,0,0c-0.1,0-0.2-0.1-0.3-0.1c0.1,0,0.2,0.1,0.3,0.1c0,0.1,0.1,0.1,0.1,0.2
		c-0.1-0.1-0.1-0.1-0.2-0.1c0.1,0.1,0.3,0.2,0.3,0.3c0,0,0,0,0,0c0,0-0.1,0-0.1,0c0,0-0.1,0-0.1,0c0,0,0,0,0,0c0,0,0,0,0,0
		c0,0,0,0,0,0c0,0,0,0-0.1,0c0,0,0-0.1,0-0.1c0,0,0,0,0,0.1c-0.1,0-0.2-0.1-0.2-0.1c-0.1,0-0.1-0.1-0.2-0.1c-0.1,0-0.1,0-0.1-0.1
		c0-0.1-0.1-0.1-0.1-0.2c0,0,0-0.1-0.1-0.1c0,0.1,0.1,0.2,0.1,0.3c0,0.1,0.1,0.2,0.2,0.3c0.1,0.1,0.1,0.2,0.3,0.2
		c0.1,0,0.1,0.1,0.2,0.1c0,0-0.1,0.1-0.1,0.1c0,0,0,0,0.1,0c0,0,0,0.1,0,0.1c0,0,0,0,0,0c0,0,0,0,0,0c-0.2,0.1-0.3,0.2-0.5,0.3
		c0,0-0.1,0-0.1-0.1c-0.2-0.1-0.4-0.1-0.6-0.1c0.2-0.2,0.4-0.4,0.4-0.8c0-0.2,0-0.3,0-0.5c0,0.2,0,0.4,0,0.6c0,0,0-0.1,0-0.1
		c0,0.2-0.1,0.4-0.2,0.5c-0.2-0.2-0.3-0.4-0.6-0.6c0,0-0.1-0.1-0.1-0.1c0.3,0.1,0.4,0.5,0.7,0.7c0,0.1-0.1,0.1-0.1,0.2
		c-0.2-0.3-0.5-0.5-0.8-0.7c-0.1-0.1-0.2-0.2-0.3-0.2c0,0,0.1,0.1,0.2,0.1c0.1,0.1,0.3,0.2,0.4,0.3c0.2,0.1,0.4,0.3,0.5,0.5
		c0,0.1-0.1,0.1-0.2,0.1c-0.1-0.1-0.1-0.2-0.2-0.2c-0.1-0.1-0.1-0.1-0.2-0.1c-0.1,0-0.1-0.1-0.2-0.1c-0.1,0-0.1,0-0.2,0
		c0,0.1,0.1,0,0.2,0.1c0.1,0,0.2,0.1,0.2,0.2c0.1,0.1,0.3,0.2,0.3,0.4c0,0-0.1,0-0.1,0.1c-0.1-0.1-0.3-0.1-0.4-0.2
		c-0.1,0-0.1-0.1-0.2-0.1c0.1,0.1,0.3,0.2,0.5,0.3c-0.1,0.1-0.2,0.2-0.3,0.3c-0.1,0-0.1-0.2-0.2-0.2c0,0,0.1,0.1,0.1,0.2
		c0,0-0.1,0.1-0.1,0.1c0,0,0-0.1,0-0.1c-0.1,0-0.2,0.2-0.3,0.3c0,0.1-0.1,0.1-0.1,0.1c0,0,0,0,0,0c0,0,0,0,0,0c0-0.1,0-0.2-0.2-0.2
		c-0.1,0-0.1,0.2-0.1,0.2c0,0,0,0,0,0c-0.1,0-0.2,0-0.3,0.1v0.1c0.1,0,0.2-0.1,0.3-0.1c0,0,0,0.1,0,0.1c0,0,0.1,0.1,0.1,0.1
		c-0.1,0-0.2,0-0.3-0.1c0,0-0.2,0-0.3,0c0.1,0,0.1,0,0.2,0c0,0,0.1,0.1,0.1,0.1c-0.1,0-0.2,0-0.2,0c0,0.1,0.2,0,0.2,0
		c0.1,0,0.1,0,0.2,0c0,0,0,0.1,0,0.1c0.1-0.1,0-0.1,0.1-0.1c0.1,0,0.1,0,0.2,0c-0.1,0.1-0.2,0.1-0.3,0.2c-0.1,0-0.2,0.1-0.2,0.1
		c-0.2-0.1-0.3-0.1-0.2-0.2c0-0.1-0.1-0.1-0.1-0.2c0-0.1,0-0.1-0.1-0.2c-0.1-0.1-0.1-0.3-0.2-0.4c0,0.3,0,0.5,0.1,0.8
		c0,0.1,0.1,0.2,0.1,0.3c0.1,0.1,0.2,0,0.3,0.1c-0.2,0.1-0.3,0.2-0.5,0.3c-0.1,0-0.2,0-0.2,0c-0.1,0-0.1,0-0.2,0c-0.1,0-0.2,0-0.3,0
		c-0.1,0-0.2,0-0.3,0c-0.1,0-0.2,0-0.3,0c-0.1,0-0.2,0-0.2,0c-0.1,0-0.1-0.1-0.2-0.1c0.1,0.1,0.3,0.1,0.4,0.1c0.1,0,0.3,0,0.4,0
		c0.3,0,0.6,0,0.9,0c-0.2,0.1-0.4,0.2-0.6,0.3c-0.2,0.1-0.4,0.1-0.5,0.2c0.1,0,0.2,0,0.3-0.1c0.1,0,0.2-0.1,0.3-0.1
		c0.1-0.1,0.3-0.1,0.5-0.2c-0.2,0.3-0.5,0.6-0.7,1c0,0,0,0-0.1-0.1c0,0,0,0.1,0.1,0.1c0,0.1-0.1,0.1-0.1,0.2c0.1,0,0.1-0.1,0.1-0.1
		c0,0,0,0.1,0,0.1c0,0,0,0,0,0.1c-0.1,0.2-0.2,0.3-0.2,0.3S40.4,85,40.2,85c0,0,0,0,0,0c0,0,0-0.1,0-0.1c0-0.1,0-0.2,0-0.2
		c0.1-0.1,0.3-0.2,0.4-0.3c-0.2,0.1-0.3,0.1-0.4,0.2c0,0-0.1,0-0.2-0.1c0,0,0-0.1-0.1-0.1c-0.1-0.1-0.1-0.2-0.2-0.2
		c-0.1-0.1-0.1-0.2-0.2-0.2c0.1,0.1,0.2,0.3,0.3,0.4c-0.2-0.1-0.5-0.1-0.8-0.1c0.1,0,0.2,0.1,0.3,0.1c0.1,0,0.2,0.1,0.3,0.1
		c0.1,0,0.2,0,0.3,0.1c0,0.1,0.1,0.2,0.2,0.3c0,0.1,0,0.1,0,0.2c-0.3,0.1-0.7,0.3-1,0.5c0,0-0.1,0-0.1,0c0-0.1,0.1-0.2,0.1-0.3
		c-0.1,0.1-0.1,0.2-0.1,0.4c-0.1,0-0.3,0.1-0.4,0.1c-0.1-0.1-0.2-0.1-0.3-0.1c-0.1-0.1-0.2-0.1-0.3-0.2c0,0-0.1-0.1-0.1-0.1
		c0,0,0.1-0.1,0.1-0.1c0.2-0.1,0.3-0.3,0.5-0.4c-0.1,0.1-0.2,0.2-0.3,0.3c-0.1,0.1-0.2,0.2-0.3,0.3c0,0,0,0-0.1,0v0.1
		c0.1,0,0.1,0.1,0.2,0.1c0,0,0,0,0,0c0,0-0.1,0-0.1,0v0.1c0,0,0.1-0.1,0.1,0c0,0-0.1,0.2,0,0.2c0,0,0,0-0.1,0v0c0,0,0,0,0,0
		c0,0.1,0,0.1,0,0.2c0,0,0-0.1,0-0.2c0.1,0,0.2,0,0.3,0c0.1,0,0.2,0,0.3,0c0,0,0.1,0,0.1,0c0.1,0,0.2,0,0.3,0.1c0,0-0.1,0.1-0.1,0.1
		c-0.1,0.1-0.2,0.1-0.2,0.2c-0.2,0-0.3-0.1-0.5-0.1c0.2,0,0.3,0.1,0.5,0.1c-0.1,0.1-0.2,0.2-0.4,0.3c-0.1,0.1-0.2,0.1-0.3,0.2
		c-6,8-7.1,10.6-6.5,11.2c0.3,0.3,1,0,3.4-0.1c1.3,0,2.3,0,3.1,0.1c26.2,0,52.5,0,78.7,0c-0.3-0.7-0.6-1.4-1-2
		C114.9,95.1,114.4,93.1,113.8,92.4z M112.2,88.6c0.1,0.1,0,0.3-0.1,0.4C112,88.8,112.2,88.7,112.2,88.6z M112.1,88.3
		c0,0,0.1,0.1,0,0.2c0,0,0,0,0,0c0,0,0,0,0,0c0,0.1,0,0.1,0,0.2C112.1,88.6,112.1,88.4,112.1,88.3z M112.1,88.9
		c0.1,0.2-0.1,0.4-0.1,0.5C112,89.2,112,89,112.1,88.9z M37.8,85.7c0-0.1,0-0.1,0-0.2c0.1,0.1,0.3,0.1,0.4,0.2
		C38.1,85.7,37.9,85.7,37.8,85.7z M38.9,85.7c0,0-0.1,0.1-0.1,0.1c0,0,0,0-0.1,0c-0.1,0-0.2,0-0.2,0C38.6,85.7,38.8,85.7,38.9,85.7
		C38.9,85.7,38.9,85.7,38.9,85.7z M38.9,85.7C38.9,85.7,39,85.6,38.9,85.7C39,85.6,39,85.6,38.9,85.7C39,85.6,39,85.7,38.9,85.7z
		 M46.5,79.8c0,0,0.2,0.2,0.2,0.3c0,0-0.1,0-0.1,0c0,0-0.1,0-0.1,0C46.5,80.1,46.4,80,46.5,79.8z M46.3,79.9c0,0,0,0.1,0,0.1
		c0,0,0,0,0,0.1c0,0-0.1,0-0.1,0C46.2,80.1,46.3,80,46.3,79.9z M46.3,80.2C46.3,80.2,46.3,80.3,46.3,80.2c0.1,0.1,0.1,0.1,0,0.1
		C46.3,80.3,46.3,80.2,46.3,80.2c-0.1,0-0.1,0-0.1,0C46.2,80.2,46.3,80.2,46.3,80.2z M46,80.3C46,80.3,46.1,80.3,46,80.3
		C46.1,80.3,46.1,80.3,46,80.3C46.1,80.3,46,80.3,46,80.3z M46,80.4C46,80.5,46,80.5,46,80.4c-0.1,0.1-0.1,0.1-0.1,0.1
		c0,0,0-0.1-0.1-0.1C45.9,80.4,46,80.4,46,80.4z M45.8,80.5c0,0,0,0.1,0.1,0.1c0,0,0,0,0,0C45.8,80.5,45.8,80.5,45.8,80.5
		C45.8,80.5,45.8,80.5,45.8,80.5z M45.8,80.8C45.8,80.8,45.8,80.8,45.8,80.8C45.8,80.8,45.8,80.8,45.8,80.8c0,0.1,0,0.1-0.1,0.2
		C45.7,80.9,45.7,80.9,45.8,80.8C45.7,80.8,45.8,80.8,45.8,80.8z M44.6,81.2c0.2,0,0.4,0,0.6,0.1c-0.2,0.1-0.4,0.3-0.7,0.4
		c0,0,0,0,0,0c-0.1-0.2-0.2-0.3-0.3-0.4C44.3,81.3,44.4,81.2,44.6,81.2z M44.2,81.4c0.1,0.1,0.2,0.2,0.3,0.3c-0.1,0-0.2,0.1-0.3,0.1
		c-0.1,0-0.3-0.1-0.4-0.2C43.9,81.6,44,81.5,44.2,81.4z M43.8,81.7c0.1,0,0.2,0.1,0.3,0.1c-0.1,0-0.2,0-0.2,0.1
		c-0.1,0-0.2,0-0.3,0.1C43.6,81.9,43.7,81.8,43.8,81.7z M41.9,83.9c-0.1,0.1-0.2,0.2-0.3,0.3c-0.1,0.1-0.2,0.2-0.2,0.2
		c0,0-0.1-0.1-0.1-0.1c0,0,0,0,0,0c0.1-0.1,0.2-0.1,0.2-0.2c0.1-0.1,0.2-0.2,0.4-0.4c0.1-0.1,0.1-0.1,0.1-0.2c0-0.1,0.1-0.1,0.1-0.2
		c0.1-0.1,0.2-0.2,0.3-0.3C42.1,83.4,41.9,83.7,41.9,83.9C41.9,83.9,41.9,83.9,41.9,83.9z M42.1,83.7c0-0.1,0-0.1,0.1-0.2
		c0.1-0.1,0-0.1,0.1-0.2c0.1-0.1,0.1-0.2,0.2-0.3c0.1-0.1,0.3-0.2,0.4-0.2c-0.1,0.1-0.1,0.2,0,0.3C42.6,83.4,42.4,83.5,42.1,83.7z
		 M43,82.9c0,0,0.1,0,0.1,0c-0.1,0.1-0.2,0.1-0.2,0.2c0-0.1-0.1-0.2,0-0.3c0.1-0.1,0.3-0.1,0.4-0.2C43.3,82.7,43.2,82.9,43,82.9z
		 M43,82.4c0-0.1,0.1-0.1,0.1-0.2c0,0,0-0.1,0-0.1c0,0,0,0,0,0c0.1,0,0.1,0.1,0.2,0.1c0.1,0,0.1,0,0.1,0c0,0,0,0-0.1,0c0,0,0,0,0,0
		c0,0,0,0,0,0c0,0,0.1,0,0.1,0c0.1,0,0.1,0,0.2,0c0.1,0,0.2-0.1,0.3-0.1c0.1,0,0.2-0.1,0.3-0.1c0,0,0,0,0,0c0,0,0.1,0,0.1,0
		c-0.2,0.1-0.4,0.3-0.6,0.4c-0.1,0-0.1,0.1-0.2,0.1c-0.1,0-0.1,0-0.2,0C43.2,82.4,43.1,82.4,43,82.4z M44.4,82.2
		c-0.3,0.2-0.6,0.3-1,0.5c0,0,0,0,0,0c0-0.1,0.1-0.1,0.1-0.2c0,0,0,0,0-0.1c0,0,0.1-0.1,0.1-0.1c0.2-0.1,0.3-0.2,0.5-0.3
		c0.1-0.1,0.2-0.1,0.3-0.2c0,0.1,0,0.2,0.1,0.3C44.5,82.2,44.4,82.2,44.4,82.2z M44.6,82.1C44.6,82.1,44.6,82.1,44.6,82.1
		c0-0.1,0-0.2-0.1-0.2c0,0,0,0,0.1,0c0.1,0,0.2-0.1,0.4-0.1c0,0,0,0,0,0C44.9,81.9,44.7,82,44.6,82.1z M45,81.6
		C45,81.6,45,81.7,45,81.6c-0.1,0.1-0.1,0.1-0.2,0.1c0.2-0.1,0.3-0.2,0.5-0.3c0,0,0,0,0,0C45.2,81.5,45.1,81.6,45,81.6z M45.3,81.4
		C45.3,81.4,45.3,81.4,45.3,81.4c0,0,0.1-0.1,0.2-0.1C45.4,81.3,45.4,81.4,45.3,81.4z M45.4,81.4C45.4,81.4,45.5,81.4,45.4,81.4
		C45.5,81.4,45.5,81.4,45.4,81.4z M45.5,81.4C45.5,81.4,45.5,81.4,45.5,81.4C45.5,81.4,45.5,81.4,45.5,81.4
		C45.5,81.4,45.5,81.4,45.5,81.4z M46.3,80.7c-0.2,0.2-0.4,0.4-0.7,0.6c0,0,0,0,0,0c0,0,0,0,0,0c0.1-0.1,0.1-0.1,0.2-0.2
		C45.9,80.9,46.1,80.8,46.3,80.7C46.3,80.7,46.3,80.7,46.3,80.7z M46.1,80.6C46.1,80.6,46.2,80.6,46.1,80.6
		C46.2,80.6,46.2,80.6,46.1,80.6C46.2,80.6,46.1,80.6,46.1,80.6z M46.4,80.7C46.4,80.6,46.4,80.6,46.4,80.7
		C46.4,80.6,46.4,80.6,46.4,80.7C46.4,80.6,46.4,80.6,46.4,80.7z M46.2,80.6C46.2,80.6,46.2,80.6,46.2,80.6
		C46.2,80.6,46.2,80.5,46.2,80.6C46.2,80.5,46.2,80.5,46.2,80.6c-0.1,0-0.1,0-0.1,0C46.1,80.5,46.1,80.5,46.2,80.6
		c-0.1-0.1,0.1-0.2,0.1-0.2c0,0,0,0,0,0c0-0.1,0.2-0.1,0.2-0.1C46.5,80.4,46.4,80.5,46.2,80.6z M46.6,80.1c0,0,0.1,0,0.1,0
		C46.7,80.1,46.7,80.1,46.6,80.1C46.6,80.2,46.6,80.1,46.6,80.1z M46.7,80.2C46.7,80.1,46.7,80.1,46.7,80.2c0.1,0,0.1,0,0.1,0
		C46.8,80.1,46.7,80.1,46.7,80.2z M46.8,79.8C46.8,79.8,46.9,79.9,46.8,79.8C46.8,79.9,46.8,79.8,46.8,79.8
		C46.8,79.8,46.8,79.8,46.8,79.8C46.8,79.8,46.8,79.8,46.8,79.8z M47.1,80.1c0,0-0.2-0.2-0.1-0.2c0.1,0,0.2,0,0.3,0
		c0.1,0,0.1-0.1,0.2-0.1c0,0,0.1,0,0.1,0c0.1,0,0.2-0.1,0.3-0.1c-0.1,0.1-0.2,0.2-0.4,0.2C47.2,79.8,47.2,80,47.1,80.1z M47.9,79.6
		c-0.1,0-0.1,0.1-0.2,0.1C47.7,79.7,47.8,79.7,47.9,79.6C47.8,79.6,47.8,79.6,47.9,79.6C47.9,79.5,47.9,79.6,47.9,79.6z M47.9,79.6
		C47.9,79.5,47.9,79.5,47.9,79.6c0-0.1,0.1-0.1,0.1-0.1c0,0,0,0,0.1,0C48,79.5,48,79.5,47.9,79.6z M48.7,79c0-0.1,0-0.3-0.1-0.4
		C48.7,78.7,48.8,78.8,48.7,79C48.8,79,48.8,79,48.7,79z M64.4,63.9C64.5,63.9,64.5,63.9,64.4,63.9C64.5,63.9,64.4,63.9,64.4,63.9
		C64.4,63.9,64.4,63.9,64.4,63.9z M64.3,64.3c-0.1-0.1,0-0.2,0.1-0.3c0,0,0,0,0,0c0.1,0,0.2,0.1,0.2,0.1c-0.1,0.1-0.1,0.1-0.2,0.2
		C64.4,64.3,64.4,64.3,64.3,64.3z M64.7,64.2c0,0-0.1,0-0.1,0c0-0.1,0.1-0.1,0.1-0.2c0,0,0.1,0,0.1,0C64.8,64.1,64.7,64.2,64.7,64.2
		z M67.4,63.5c0,0,0-0.1-0.1-0.1c0,0,0.1,0,0.1-0.1c0.1-0.1,0.2-0.1,0.4-0.2c0.1,0,0.1,0,0.2-0.1c0.1,0,0.2,0,0.2,0
		C68,63.3,67.7,63.4,67.4,63.5z M102.5,78.1C102.5,78.1,102.5,78.1,102.5,78.1C102.5,78.1,102.5,78.1,102.5,78.1
		C102.5,78.2,102.5,78.1,102.5,78.1z M102.6,78.2C102.6,78.2,102.6,78.1,102.6,78.2c-0.1-0.1-0.1-0.2-0.1-0.2c0-0.2,0.1-0.5,0.1-0.9
		c0,0.1,0,0.1,0.1,0.1c0.1,0.2,0.3,0.4,0.3,0.6c0.1,0.2,0.1,0.4,0.1,0.7C103,78.4,102.7,78.3,102.6,78.2z M103.4,78.6
		c0,0-0.1,0-0.1-0.1c0-0.1,0-0.2-0.1-0.3c0-0.2-0.1-0.5-0.2-0.7c-0.1-0.2-0.2-0.4-0.4-0.6c0,0,0-0.1,0-0.1c0-0.1,0-0.1,0-0.2
		c0,0,0,0,0-0.1c0-0.2,0-0.4,0.1-0.6c0.1,0.2,0.2,0.4,0.3,0.6c0.2,0.4,0.3,0.7,0.4,1.1C103.4,78.1,103.5,78.4,103.4,78.6
		C103.4,78.6,103.4,78.6,103.4,78.6z M111,88c0,0,0.1,0.1,0.1,0.2c0,0.1-0.1,0.2-0.1,0.3c0,0.1-0.1,0.2-0.1,0.2c0-0.2,0-0.5,0.1-0.8
		C111,87.9,111,87.9,111,88z M110.6,86.6c0-0.2,0.2-0.4,0.3-0.6c0.1,0.2,0.2,0.5,0.1,0.8c0,0.3-0.1,0.6-0.2,0.9
		c-0.1-0.1-0.2-0.3-0.1-0.5c0,0,0,0.1-0.1,0.1c0,0-0.1-0.1,0-0.2C110.6,87,110.6,86.8,110.6,86.6z M110.8,87.5
		c-0.1-0.1-0.1-0.2-0.2-0.2C110.7,87.3,110.7,87.4,110.8,87.5z M110.5,85.2c0.1,0.3,0.1,0.7,0.1,1.1C110.5,86,110.4,85.6,110.5,85.2
		z M110,87.1C110,87.1,110,87.1,110,87.1c-0.1,0-0.1,0-0.1,0c0-0.1,0-0.1,0-0.2C109.9,87,110,87,110,87.1z M110.8,89
		c-0.1-0.1-0.1-0.2-0.1-0.3c0,0-0.2,0-0.2,0.1c0,0.1,0.1,0.1,0.1,0.1c-0.1,0,0,0.1,0,0.1c-0.1,0.1,0.1,0.1,0.1,0.2c0,0,0,0,0,0
		c0,0-0.1-0.1-0.1-0.1c-0.1-0.2-0.3-0.5-0.4-0.7c-0.1-0.2-0.4-0.4-0.4-0.4s0-0.5,0-1c0,0,0,0,0.1,0c0.1,0.1,0.2,0.2,0.3,0.3
		c0.1,0.1,0.2,0.2,0.2,0.3c0.1,0.1,0.1,0.3,0.1,0.5C110.7,88.5,110.8,88.7,110.8,89z M110.6,87.4c0.1,0.1,0.2,0.3,0.3,0.4
		c0,0.2-0.1,0.6-0.1,0.8C110.7,88.2,110.6,87.9,110.6,87.4z M110.8,89.4C110.8,89.4,110.8,89.3,110.8,89.4c0.2,0.1,0.3,0.3,0.4,0.6
		C111.1,89.8,110.9,89.6,110.8,89.4z M111.4,90.2c-0.1-0.2-0.2-0.3-0.2-0.5c0,0,0,0-0.1,0c-0.1-0.1-0.1-0.2-0.2-0.3
		c-0.1,0-0.1-0.1-0.1-0.2c0-0.4,0.2-0.6,0.3-0.9c0.2,0.3,0.4,0.7,0.5,1c0,0.1,0.1,0.3,0.1,0.4c0,0.2-0.1,0.3-0.1,0.5
		c0,0.1-0.1,0.2-0.1,0.4C111.5,90.4,111.5,90.3,111.4,90.2z"/>
</g>
</svg>
